<svg width="16" height="16" viewBox="0 0 16 16" fill="none" xmlns="http://www.w3.org/2000/svg">
<path fill-rule="evenodd" clip-rule="evenodd" d="M8.91854 3.29355C8.73548 3.4766 8.73549 3.7734 8.91855 3.95646L12.4933 7.53121H2.375C2.11612 7.53121 1.90625 7.74107 1.90625 7.99996C1.90625 8.25884 2.11612 8.46871 2.375 8.46871H12.4933L8.91854 12.0435C8.73549 12.2266 8.73549 12.5234 8.91854 12.7064C9.1016 12.8895 9.3984 12.8895 9.58146 12.7064L13.9565 8.33141C14.0444 8.24351 14.0938 8.12428 14.0937 7.99996C14.0937 7.87563 14.0444 7.75641 13.9565 7.6685L9.58145 3.29354C9.3984 3.11048 9.1016 3.11049 8.91854 3.29355Z" fill="#101A3E"/>
</svg>
