<svg width="16" height="16" viewBox="0 0 16 16" fill="none" xmlns="http://www.w3.org/2000/svg">
<path fill-rule="evenodd" clip-rule="evenodd" d="M7.08146 3.29355C7.26452 3.4766 7.26451 3.7734 7.08145 3.95646L3.50667 7.53121H13.625C13.8839 7.53121 14.0938 7.74107 14.0938 7.99996C14.0938 8.25884 13.8839 8.46871 13.625 8.46871H3.50666L7.08146 12.0435C7.26451 12.2266 7.26451 12.5234 7.08146 12.7064C6.8984 12.8895 6.6016 12.8895 6.41854 12.7064L2.04354 8.33141C1.95564 8.24351 1.90625 8.12428 1.90625 7.99996C1.90625 7.87563 1.95564 7.75641 2.04355 7.6685L6.41855 3.29354C6.6016 3.11048 6.8984 3.11049 7.08146 3.29355Z" fill="#101A3E"/>
</svg>
