<svg width="178" height="26" viewBox="0 0 178 26" fill="none" xmlns="http://www.w3.org/2000/svg">
<path d="M2.36 20.2C2.06667 20.2 1.83333 20.12 1.66 19.96C1.5 19.7867 1.42 19.5533 1.42 19.26V6.74C1.42 6.44667 1.5 6.22 1.66 6.06C1.83333 5.88667 2.06667 5.8 2.36 5.8C2.65333 5.8 2.88667 5.88667 3.06 6.06C3.23333 6.22 3.32 6.44667 3.32 6.74V12.04H11.56V6.74C11.56 6.44667 11.6467 6.22 11.82 6.06C11.9933 5.88667 12.2267 5.8 12.52 5.8C12.8 5.8 13.02 5.88667 13.18 6.06C13.3533 6.22 13.44 6.44667 13.44 6.74V19.26C13.44 19.5533 13.3533 19.7867 13.18 19.96C13.02 20.12 12.8 20.2 12.52 20.2C12.2267 20.2 11.9933 20.12 11.82 19.96C11.6467 19.7867 11.56 19.5533 11.56 19.26V13.58H3.32V19.26C3.32 19.5533 3.23333 19.7867 3.06 19.96C2.88667 20.12 2.65333 20.2 2.36 20.2ZM21.2028 20.2C19.4695 20.2 18.1161 19.7533 17.1428 18.86C16.1828 17.9533 15.7028 16.7 15.7028 15.1C15.7028 13.5133 16.1761 12.2667 17.1228 11.36C18.0828 10.4533 19.4095 10 21.1028 10C22.1428 10 23.0628 10.1667 23.8628 10.5C24.6761 10.82 25.3095 11.28 25.7628 11.88C26.2161 12.4667 26.4428 13.14 26.4428 13.9C26.4428 14.4867 26.2695 14.94 25.9228 15.26C25.5895 15.58 25.1095 15.74 24.4828 15.74H17.5428C17.5428 16.6733 17.8561 17.4 18.4828 17.92C19.1228 18.4267 20.0295 18.68 21.2028 18.68C21.8961 18.68 22.4961 18.6067 23.0028 18.46C23.5228 18.3133 24.0095 18.0733 24.4628 17.74C24.7961 17.5133 25.0495 17.4 25.2228 17.4C25.3828 17.4 25.5295 17.4667 25.6628 17.6C25.8495 17.7867 25.9428 17.98 25.9428 18.18C25.9428 18.38 25.8495 18.5667 25.6628 18.74C24.5695 19.7133 23.0828 20.2 21.2028 20.2ZM23.9228 14.34C24.1628 14.34 24.3361 14.2933 24.4428 14.2C24.5495 14.1067 24.6028 13.94 24.6028 13.7C24.6028 13.06 24.2761 12.54 23.6228 12.14C22.9828 11.7267 22.1428 11.52 21.1028 11.52C20.0228 11.52 19.1628 11.7733 18.5228 12.28C17.8961 12.7867 17.5828 13.4733 17.5828 14.34H23.9228ZM32.8592 20.2C31.7792 20.2 30.8392 20 30.0392 19.6C29.2392 19.1867 28.6192 18.6 28.1792 17.84C27.7392 17.08 27.5192 16.18 27.5192 15.14C27.5192 14.14 27.7259 13.2533 28.1392 12.48C28.5659 11.6933 29.1859 11.0867 29.9992 10.66C30.8126 10.22 31.7792 10 32.8992 10C33.8059 10 34.5726 10.1667 35.1992 10.5C35.8392 10.82 36.4192 11.28 36.9392 11.88L36.9592 5.76C36.9592 5.46667 37.0392 5.24 37.1992 5.08C37.3726 4.90667 37.6059 4.82 37.8992 4.82C38.1792 4.82 38.3992 4.90667 38.5592 5.08C38.7192 5.24 38.7992 5.46667 38.7992 5.76V19.26C38.7992 19.5533 38.7192 19.7867 38.5592 19.96C38.3992 20.12 38.1792 20.2 37.8992 20.2C37.6059 20.2 37.3726 20.12 37.1992 19.96C37.0392 19.7867 36.9592 19.5533 36.9592 19.26V18.28C36.0259 19.56 34.6592 20.2 32.8592 20.2ZM33.0592 18.66C34.2726 18.66 35.2259 18.3467 35.9192 17.72C36.6126 17.08 36.9592 16.2067 36.9592 15.1C36.9592 14.0067 36.5926 13.14 35.8592 12.5C35.1259 11.86 34.1992 11.54 33.0792 11.54C31.9192 11.54 31.0126 11.8667 30.3592 12.52C29.7059 13.1733 29.3792 14.0467 29.3792 15.14C29.3792 16.2867 29.6992 17.16 30.3392 17.76C30.9926 18.36 31.8992 18.66 33.0592 18.66ZM46.3591 20.2C44.6257 20.2 43.2724 19.7533 42.2991 18.86C41.3391 17.9533 40.8591 16.7 40.8591 15.1C40.8591 13.5133 41.3324 12.2667 42.2791 11.36C43.2391 10.4533 44.5657 10 46.2591 10C47.2991 10 48.2191 10.1667 49.0191 10.5C49.8324 10.82 50.4657 11.28 50.9191 11.88C51.3724 12.4667 51.5991 13.14 51.5991 13.9C51.5991 14.4867 51.4257 14.94 51.0791 15.26C50.7457 15.58 50.2657 15.74 49.6391 15.74H42.6991C42.6991 16.6733 43.0124 17.4 43.6391 17.92C44.2791 18.4267 45.1857 18.68 46.3591 18.68C47.0524 18.68 47.6524 18.6067 48.1591 18.46C48.6791 18.3133 49.1657 18.0733 49.6191 17.74C49.9524 17.5133 50.2057 17.4 50.3791 17.4C50.5391 17.4 50.6857 17.4667 50.8191 17.6C51.0057 17.7867 51.0991 17.98 51.0991 18.18C51.0991 18.38 51.0057 18.5667 50.8191 18.74C49.7257 19.7133 48.2391 20.2 46.3591 20.2ZM49.0791 14.34C49.3191 14.34 49.4924 14.2933 49.5991 14.2C49.7057 14.1067 49.7591 13.94 49.7591 13.7C49.7591 13.06 49.4324 12.54 48.7791 12.14C48.1391 11.7267 47.2991 11.52 46.2591 11.52C45.1791 11.52 44.3191 11.7733 43.6791 12.28C43.0524 12.7867 42.7391 13.4733 42.7391 14.34H49.0791ZM54.5623 20.2C54.269 20.2 54.0423 20.12 53.8823 19.96C53.7357 19.7867 53.6623 19.5533 53.6623 19.26V10.94C53.6623 10.3133 53.9623 10 54.5623 10C54.8423 10 55.0623 10.0867 55.2223 10.26C55.3823 10.42 55.4623 10.6467 55.4623 10.94V11.96C56.3423 10.7867 57.5357 10.2 59.0423 10.2H59.5223C59.8423 10.2 60.089 10.2667 60.2623 10.4C60.4357 10.5333 60.5223 10.7267 60.5223 10.98C60.5223 11.22 60.429 11.4067 60.2423 11.54C60.069 11.6733 59.829 11.74 59.5223 11.74H58.9223C57.869 11.74 57.0357 12.0533 56.4223 12.68C55.809 13.2933 55.5023 14.1333 55.5023 15.2V19.26C55.5023 19.5533 55.4157 19.7867 55.2423 19.96C55.0823 20.12 54.8557 20.2 54.5623 20.2ZM65.2153 20.2C63.922 20.2 62.8953 19.9067 62.1353 19.32C61.3886 18.7333 61.0153 17.94 61.0153 16.94C61.0153 15.94 61.4086 15.1467 62.1953 14.56C62.9953 13.9733 64.082 13.68 65.4553 13.68C66.1753 13.68 66.8153 13.7733 67.3753 13.96C67.9486 14.1467 68.4086 14.4 68.7553 14.72V13.72C68.7553 13 68.522 12.4533 68.0553 12.08C67.602 11.6933 66.9286 11.5 66.0353 11.5C64.8486 11.5 63.822 11.7733 62.9553 12.32C62.702 12.4667 62.482 12.54 62.2953 12.54C62.122 12.54 61.9486 12.4667 61.7753 12.32C61.6286 12.1733 61.5553 12 61.5553 11.8C61.5553 11.5733 61.6686 11.3667 61.8953 11.18C62.3753 10.82 62.982 10.5333 63.7153 10.32C64.4486 10.1067 65.2153 10 66.0153 10C67.4686 10 68.602 10.3333 69.4153 11C70.2286 11.6533 70.6353 12.5733 70.6353 13.76V19.3C70.6353 19.5933 70.5553 19.82 70.3953 19.98C70.2486 20.1267 70.0286 20.2 69.7353 20.2C69.442 20.2 69.2153 20.1267 69.0553 19.98C68.8953 19.82 68.8153 19.6067 68.8153 19.34V18.78C68.0153 19.7267 66.8153 20.2 65.2153 20.2ZM65.5353 18.78C66.5086 18.78 67.2886 18.6067 67.8753 18.26C68.4753 17.9 68.7753 17.4333 68.7753 16.86C68.7753 16.3 68.4886 15.8667 67.9153 15.56C67.3553 15.24 66.5753 15.08 65.5753 15.08C64.7086 15.08 64.042 15.24 63.5753 15.56C63.1086 15.88 62.8753 16.34 62.8753 16.94C62.8753 17.5267 63.102 17.98 63.5553 18.3C64.022 18.62 64.682 18.78 65.5353 18.78ZM84.6289 20.2C83.3356 20.2 82.1356 19.9867 81.0289 19.56C79.9356 19.12 79.0489 18.5133 78.3689 17.74C78.2356 17.5667 78.1689 17.4 78.1689 17.24C78.1689 16.9867 78.2822 16.7667 78.5089 16.58C78.6556 16.46 78.8089 16.4 78.9689 16.4C79.2089 16.4 79.4556 16.5267 79.7089 16.78C80.2822 17.3667 80.9889 17.8267 81.8289 18.16C82.6822 18.48 83.6156 18.64 84.6289 18.64C85.6956 18.64 86.5222 18.4467 87.1089 18.06C87.7089 17.66 88.0089 17.1067 88.0089 16.4C88.0089 15.7467 87.7156 15.22 87.1289 14.82C86.5422 14.4067 85.5356 14.0467 84.1089 13.74C82.1489 13.3 80.7356 12.7467 79.8689 12.08C79.0022 11.4133 78.5689 10.5333 78.5689 9.44C78.5689 8.70667 78.7889 8.06667 79.2289 7.52C79.6689 6.97333 80.2956 6.55333 81.1089 6.26C81.9222 5.95333 82.8689 5.8 83.9489 5.8C85.1756 5.8 86.2756 6.01333 87.2489 6.44C88.2222 6.85333 88.9289 7.42 89.3689 8.14C89.4756 8.3 89.5289 8.46667 89.5289 8.64C89.5289 8.90667 89.4022 9.12667 89.1489 9.3C89.0289 9.38 88.8889 9.42 88.7289 9.42C88.5822 9.42 88.4356 9.38667 88.2889 9.32C88.1422 9.24 88.0222 9.14 87.9289 9.02C87.5422 8.48667 87.0022 8.08 86.3089 7.8C85.6289 7.50667 84.8422 7.36 83.9489 7.36C82.8156 7.36 81.9489 7.54 81.3489 7.9C80.7622 8.24667 80.4689 8.76 80.4689 9.44C80.4689 9.85333 80.5889 10.2133 80.8289 10.52C81.0689 10.8133 81.4622 11.08 82.0089 11.32C82.5556 11.5467 83.3089 11.7733 84.2689 12C86.2822 12.4667 87.7289 13.0467 88.6089 13.74C89.4889 14.42 89.9289 15.3067 89.9289 16.4C89.9289 17.1733 89.7089 17.8467 89.2689 18.42C88.8422 18.98 88.2289 19.42 87.4289 19.74C86.6289 20.0467 85.6956 20.2 84.6289 20.2ZM93.1166 25.98C92.8232 25.98 92.5966 25.8933 92.4366 25.72C92.2766 25.56 92.1966 25.3333 92.1966 25.04V10.94C92.1966 10.6467 92.2766 10.42 92.4366 10.26C92.5966 10.0867 92.8232 10 93.1166 10C93.4099 10 93.6366 10.0867 93.7966 10.26C93.9699 10.42 94.0566 10.6467 94.0566 10.94V11.92C94.5899 11.28 95.1966 10.8 95.8766 10.48C96.5699 10.16 97.3832 10 98.3166 10C99.9166 10 101.177 10.4533 102.097 11.36C103.03 12.2533 103.497 13.48 103.497 15.04C103.497 16.08 103.283 16.9933 102.857 17.78C102.43 18.5533 101.817 19.1533 101.017 19.58C100.23 19.9933 99.3032 20.2 98.2366 20.2C97.3699 20.2 96.5966 20.0533 95.9166 19.76C95.2499 19.4533 94.6366 18.9733 94.0766 18.32L94.0566 25.04C94.0566 25.3333 93.9699 25.56 93.7966 25.72C93.6366 25.8933 93.4099 25.98 93.1166 25.98ZM97.9966 18.66C99.1432 18.66 100.037 18.34 100.677 17.7C101.317 17.06 101.637 16.1667 101.637 15.02C101.637 13.9 101.317 13.04 100.677 12.44C100.05 11.84 99.1499 11.54 97.9766 11.54C96.7632 11.54 95.8032 11.8533 95.0966 12.48C94.4032 13.1067 94.0566 13.96 94.0566 15.04C94.0566 16.1467 94.4099 17.0267 95.1166 17.68C95.8366 18.3333 96.7966 18.66 97.9966 18.66ZM106.476 20.2C106.183 20.2 105.956 20.12 105.796 19.96C105.65 19.7867 105.576 19.5533 105.576 19.26V5.76C105.576 5.45333 105.65 5.22 105.796 5.06C105.956 4.9 106.183 4.82 106.476 4.82C106.77 4.82 106.996 4.90667 107.156 5.08C107.33 5.24 107.416 5.46667 107.416 5.76V11.92C108.416 10.64 109.743 10 111.396 10C112.676 10 113.663 10.3733 114.356 11.12C115.063 11.8533 115.416 12.8933 115.416 14.24V19.26C115.416 19.5533 115.33 19.7867 115.156 19.96C114.996 20.12 114.776 20.2 114.496 20.2C114.203 20.2 113.976 20.12 113.816 19.96C113.656 19.7867 113.576 19.5533 113.576 19.26V14.24C113.576 13.3467 113.363 12.6733 112.936 12.22C112.523 11.7667 111.903 11.54 111.076 11.54C109.956 11.54 109.063 11.8733 108.396 12.54C107.743 13.1933 107.416 14.08 107.416 15.2V19.26C107.416 19.5533 107.33 19.7867 107.156 19.96C106.996 20.12 106.77 20.2 106.476 20.2ZM122.883 20.2C121.149 20.2 119.796 19.7533 118.823 18.86C117.863 17.9533 117.383 16.7 117.383 15.1C117.383 13.5133 117.856 12.2667 118.803 11.36C119.763 10.4533 121.089 10 122.783 10C123.823 10 124.743 10.1667 125.543 10.5C126.356 10.82 126.989 11.28 127.443 11.88C127.896 12.4667 128.123 13.14 128.123 13.9C128.123 14.4867 127.949 14.94 127.603 15.26C127.269 15.58 126.789 15.74 126.163 15.74H119.223C119.223 16.6733 119.536 17.4 120.163 17.92C120.803 18.4267 121.709 18.68 122.883 18.68C123.576 18.68 124.176 18.6067 124.683 18.46C125.203 18.3133 125.689 18.0733 126.143 17.74C126.476 17.5133 126.729 17.4 126.903 17.4C127.063 17.4 127.209 17.4667 127.343 17.6C127.529 17.7867 127.623 17.98 127.623 18.18C127.623 18.38 127.529 18.5667 127.343 18.74C126.249 19.7133 124.763 20.2 122.883 20.2ZM125.603 14.34C125.843 14.34 126.016 14.2933 126.123 14.2C126.229 14.1067 126.283 13.94 126.283 13.7C126.283 13.06 125.956 12.54 125.303 12.14C124.663 11.7267 123.823 11.52 122.783 11.52C121.703 11.52 120.843 11.7733 120.203 12.28C119.576 12.7867 119.263 13.4733 119.263 14.34H125.603ZM131.086 20.2C130.792 20.2 130.566 20.12 130.406 19.96C130.259 19.7867 130.186 19.5533 130.186 19.26V10.94C130.186 10.3133 130.486 10 131.086 10C131.366 10 131.586 10.0867 131.746 10.26C131.906 10.42 131.986 10.6467 131.986 10.94V11.96C132.866 10.7867 134.059 10.2 135.566 10.2H136.046C136.366 10.2 136.612 10.2667 136.786 10.4C136.959 10.5333 137.046 10.7267 137.046 10.98C137.046 11.22 136.952 11.4067 136.766 11.54C136.592 11.6733 136.352 11.74 136.046 11.74H135.446C134.392 11.74 133.559 12.0533 132.946 12.68C132.332 13.2933 132.026 14.1333 132.026 15.2V19.26C132.026 19.5533 131.939 19.7867 131.766 19.96C131.606 20.12 131.379 20.2 131.086 20.2ZM143.039 20.2C141.305 20.2 139.952 19.7533 138.979 18.86C138.019 17.9533 137.539 16.7 137.539 15.1C137.539 13.5133 138.012 12.2667 138.959 11.36C139.919 10.4533 141.245 10 142.939 10C143.979 10 144.899 10.1667 145.699 10.5C146.512 10.82 147.145 11.28 147.599 11.88C148.052 12.4667 148.279 13.14 148.279 13.9C148.279 14.4867 148.105 14.94 147.759 15.26C147.425 15.58 146.945 15.74 146.319 15.74H139.379C139.379 16.6733 139.692 17.4 140.319 17.92C140.959 18.4267 141.865 18.68 143.039 18.68C143.732 18.68 144.332 18.6067 144.839 18.46C145.359 18.3133 145.845 18.0733 146.299 17.74C146.632 17.5133 146.885 17.4 147.059 17.4C147.219 17.4 147.365 17.4667 147.499 17.6C147.685 17.7867 147.779 17.98 147.779 18.18C147.779 18.38 147.685 18.5667 147.499 18.74C146.405 19.7133 144.919 20.2 143.039 20.2ZM145.759 14.34C145.999 14.34 146.172 14.2933 146.279 14.2C146.385 14.1067 146.439 13.94 146.439 13.7C146.439 13.06 146.112 12.54 145.459 12.14C144.819 11.7267 143.979 11.52 142.939 11.52C141.859 11.52 140.999 11.7733 140.359 12.28C139.732 12.7867 139.419 13.4733 139.419 14.34H145.759Z" fill="#191919"/>
<g clip-path="url(#clip0_35_77)">
<path d="M160.388 14.1436H154.6C154.831 16.4418 155.743 18.5455 157.135 20.2418L161.227 16.15C160.826 15.5541 160.534 14.8792 160.388 14.1436Z" fill="#191919"/>
<path d="M162.845 8.22779C163.447 7.8265 164.122 7.54075 164.851 7.38875V1.60059C162.553 1.83163 160.449 2.74363 158.753 4.13595L162.845 8.22779Z" fill="#191919"/>
<path d="M173.248 4.13595C171.551 2.74363 169.448 1.83163 167.149 1.60059V7.38875C167.879 7.53466 168.554 7.8265 169.156 8.22779L173.248 4.13595Z" fill="#191919"/>
<path d="M161.227 9.84477L157.135 5.75293C155.743 7.44925 154.831 9.55293 154.6 11.8512H160.388C160.534 11.1216 160.826 10.4467 161.227 9.84477Z" fill="#191919"/>
<path d="M171.612 11.858H177.4C177.169 9.55977 176.257 7.45608 174.865 5.75977L170.773 9.8516C171.174 10.4474 171.466 11.1223 171.612 11.858Z" fill="#191919"/>
<path d="M170.773 16.1558L174.865 20.2477C176.257 18.5513 177.169 16.4477 177.4 14.1494H171.612C171.466 14.879 171.174 15.5539 170.773 16.1558Z" fill="#191919"/>
<path d="M167.143 18.6125V24.4006C169.441 24.1696 171.545 23.2576 173.241 21.8653L169.149 17.7734C168.554 18.1747 167.879 18.4666 167.143 18.6125Z" fill="#191919"/>
<path d="M158.753 21.8653C160.449 23.2576 162.553 24.1696 164.851 24.4006V18.6125C164.122 18.4666 163.441 18.1747 162.845 17.7734L158.753 21.8653Z" fill="#191919"/>
</g>
<defs>
<clipPath id="clip0_35_77">
<rect width="24" height="24" fill="white" transform="translate(154 1)"/>
</clipPath>
</defs>
</svg>
