<svg width="24" height="24" viewBox="0 0 24 24" fill="none" xmlns="http://www.w3.org/2000/svg">
<rect width="24" height="24" rx="12" fill="url(#paint0_linear_41_160)"/>
<path d="M8.45548 12.7217H4.7998C4.94572 14.1732 5.52172 15.5018 6.40108 16.5732L8.9854 13.9889C8.73196 13.6126 8.54764 13.1863 8.45548 12.7217Z" fill="white"/>
<path d="M10.0067 8.9854C10.3868 8.73196 10.8131 8.55148 11.2739 8.45548V4.7998C9.82236 4.94572 8.49372 5.52172 7.42236 6.40108L10.0067 8.9854Z" fill="white"/>
<path d="M16.5766 6.40108C15.5053 5.52172 14.1766 4.94572 12.7251 4.7998V8.45548C13.1859 8.54764 13.6121 8.73196 13.9923 8.9854L16.5766 6.40108Z" fill="white"/>
<path d="M8.9854 10.0072L6.40108 7.42285C5.52172 8.49421 4.94572 9.82285 4.7998 11.2744H8.45548C8.54764 10.8136 8.73196 10.3873 8.9854 10.0072Z" fill="white"/>
<path d="M15.5436 11.2783H19.1993C19.0534 9.82676 18.4774 8.49812 17.598 7.42676L15.0137 10.0111C15.2671 10.3874 15.4514 10.8136 15.5436 11.2783Z" fill="white"/>
<path d="M15.0142 13.9918L17.5985 16.5761C18.4778 15.5048 19.0538 14.1761 19.1998 12.7246H15.5441C15.4519 13.1854 15.2676 13.6116 15.0142 13.9918Z" fill="white"/>
<path d="M12.7217 15.5436V19.1993C14.1732 19.0534 15.5018 18.4774 16.5732 17.598L13.9889 15.0137C13.6126 15.2671 13.1863 15.4514 12.7217 15.5436Z" fill="white"/>
<path d="M7.42236 17.598C8.49372 18.4774 9.82236 19.0534 11.2739 19.1993V15.5436C10.8131 15.4514 10.383 15.2671 10.0067 15.0137L7.42236 17.598Z" fill="white"/>
<defs>
<linearGradient id="paint0_linear_41_160" x1="12" y1="0" x2="12" y2="24" gradientUnits="userSpaceOnUse">
<stop stop-color="#191919"/>
<stop offset="1" stop-color="#BC2095"/>
</linearGradient>
</defs>
</svg>
