<svg fill="#12B886" xmlns="http://www.w3.org/2000/svg"  viewBox="0 0 64 64" width="96px" height="96px"><path d="M32,10c12.15,0,22,9.85,22,22s-9.85,22-22,22s-22-9.85-22-22S19.85,10,32,10z M42.679,25.486	c0.601-0.927,0.336-2.166-0.591-2.766c-0.93-0.6-2.167-0.336-2.767,0.591l-9.709,14.986l-5.11-5.809	c-0.729-0.829-1.994-0.911-2.823-0.18c-0.829,0.729-0.91,1.993-0.181,2.823l6.855,7.791c0.382,0.433,0.93,0.679,1.502,0.679	c0.049,0,0.098-0.002,0.146-0.005c0.625-0.046,1.191-0.382,1.532-0.907L42.679,25.486z"/></svg>